<?xml version="1.0" encoding="UTF-8" standalone="no"?>
<!-- Created with Inkscape (http://www.inkscape.org/) -->

<svg
   xmlns:svg="http://www.w3.org/2000/svg"
   xmlns="http://www.w3.org/2000/svg"
   version="1.0"
   width="265"
   height="150"
   id="svg2898">
  <defs
     id="defs21" />
  <g
     transform="scale(1.2295957,1.2260211)"
     id="g2622">
    <g
       id="g2624">
      <path
         d="m 140.253,110.221 2.945,5.891 -2.492,0 -2.863,-5.705 -3.255,0 0,5.705 -2.121,0 0,-14.419 6.323,0 c 2.514,0 4.635,1.339 4.635,4.306 0,2.306 -1.215,3.728 -3.172,4.222 z m -1.463,-6.489 -4.202,0 0,4.635 4.202,0 c 1.442,0 2.451,-0.741 2.451,-2.307 0,-1.504 -0.988,-2.328 -2.451,-2.328 z"
         id="path2626"
         style="fill:#cc0000" />
      <path
         d="m 155.164,111.458 -7.148,0 c 0.227,2.08 1.401,2.966 2.72,2.966 0.906,0 1.627,-0.329 2.348,-0.865 l 1.257,1.359 c -0.947,0.906 -2.08,1.421 -3.729,1.421 -2.533,0 -4.676,-2.039 -4.676,-5.623 0,-3.667 1.937,-5.645 4.737,-5.645 3.069,0 4.553,2.492 4.553,5.418 0,0.39 -0.041,0.742 -0.062,0.969 z m -4.635,-4.471 c -1.422,0 -2.287,0.988 -2.473,2.719 l 5.026,0 c -0.102,-1.483 -0.802,-2.719 -2.553,-2.719 z"
         id="path2628"
         style="fill:#cc0000" />
      <path
         d="m 164.37,116.112 0,-1.029 c -0.783,0.721 -1.689,1.256 -2.822,1.256 -2.328,0 -4.161,-1.688 -4.161,-5.809 0,-3.708 2.019,-5.459 4.264,-5.459 1.092,0 2.122,0.577 2.72,1.236 l 0,-4.12 2.101,-1.092 0,15.017 -2.102,0 z m 0.021,-7.662 c -0.474,-0.639 -1.463,-1.422 -2.534,-1.422 -1.524,0 -2.348,1.154 -2.348,3.44 0,2.719 0.865,3.913 2.431,3.913 1.009,0 1.895,-0.68 2.451,-1.379 l 0,-4.552 z"
         id="path2630"
         style="fill:#cc0000" />
      <path
         d="m 184.266,116.112 0,-6.468 -6.634,0 0,6.468 -2.162,0 0,-14.419 2.162,0 0,5.829 6.634,0 0,-5.829 2.162,0 0,14.419 -2.162,0 z"
         id="path2632"
         style="fill:#cc0000" />
      <path
         d="m 196.065,116.112 0,-1.07 c -0.741,0.741 -1.792,1.297 -2.966,1.297 -1.751,0 -3.749,-0.988 -3.749,-3.646 0,-2.41 1.854,-3.502 4.305,-3.502 1.01,0 1.813,0.144 2.41,0.412 l 0,-0.804 c 0,-1.174 -0.721,-1.833 -2.039,-1.833 -1.112,0 -1.978,0.206 -2.822,0.68 l -0.824,-1.606 c 1.03,-0.639 2.184,-0.969 3.708,-0.969 2.41,0 4.059,1.174 4.059,3.626 l 0,7.415 -2.082,0 0,0 z m 0,-4.613 c -0.576,-0.289 -1.318,-0.475 -2.472,-0.475 -1.359,0 -2.225,0.618 -2.225,1.607 0,1.07 0.68,1.792 2.08,1.792 1.134,0 2.122,-0.7 2.616,-1.38 l 0,-1.544 0.001,0 z"
         id="path2634"
         style="fill:#cc0000" />
      <path
         d="m 206.363,115.844 c -0.516,0.289 -1.236,0.494 -2.081,0.494 -1.504,0 -2.431,-0.926 -2.431,-2.863 l 0,-6.241 -1.545,0 0,-1.937 1.545,0 0,-3.09 2.081,-1.112 0,4.202 2.678,0 0,1.937 -2.678,0 0,5.871 c 0,1.009 0.329,1.298 1.112,1.298 0.556,0 1.174,-0.206 1.565,-0.433 l -0.246,1.874 z"
         id="path2636"
         style="fill:#cc0000" />
    </g>
    <g
       id="g2638">
      <path
         d="m 106.389,51.025 c 3.57,-1.787 6,-5.101 6,-9.181 0,-9.509 -8.614,-11.555 -16.465,-11.421 l -21.186,0 -0.121,0 -11.746,0 0,30.362 c 0,4.409 -1.537,5.936 -4.274,5.936 -2.941,0 -4.595,-1.654 -4.595,-4.658 l 0,-4.205 -11.17,0 0,1.969 c 0,10.154 3.892,17.099 15.952,17.099 9.837,0 15.038,-4.356 15.833,-12.958 l 0,12.004 21.879,0 c 9.761,0 17.737,-3.315 17.737,-14.161 0,-5.165 -2.991,-9.376 -7.844,-10.786 z m -19.902,-11.42 9.181,0 c 2.493,0 4.852,1.092 4.852,4.405 0,3.253 -2.806,4.338 -4.852,4.338 l -9.181,0 0,-8.743 z m 9.502,26.864 -9.502,0 0,-10.469 9.502,0 c 3.576,0 6.384,1.345 6.384,5.355 0,3.77 -2.617,5.114 -6.384,5.114 z"
         id="path2640"
         style="fill:#cc0000" />
      <path
         d="m 90.067,108.399 c 0,-7.695 -6.245,-13.947 -13.944,-13.947 -7.714,0 -13.955,6.252 -13.955,13.947 0,7.709 6.241,13.948 13.955,13.948 7.699,0 13.944,-6.239 13.944,-13.948 z"
         id="path2642"
         style="fill:#cc0000" />
      <path
         d="m 53.012,103.999 c 0,-6.818 -5.533,-12.349 -12.357,-12.349 -6.823,0 -12.352,5.53 -12.352,12.349 0,6.824 5.528,12.357 12.352,12.357 6.824,0 12.357,-5.533 12.357,-12.357 z"
         id="path2644"
         style="fill:#cc0000" />
      <path
         d="m 25.097,81.68 c 0,-6.157 -4.984,-11.151 -11.15,-11.151 -6.168,0 -11.16,4.994 -11.16,11.151 0,6.174 4.992,11.168 11.16,11.168 6.165,0 11.15,-4.994 11.15,-11.168 z"
         id="path2646"
         style="fill:#cc0000" />
      <path
         d="m 19.918,50.615 c 0,-5.506 -4.455,-9.956 -9.955,-9.956 -5.499,0 -9.963,4.449 -9.963,9.956 0,5.5 4.464,9.964 9.963,9.964 5.5,0 9.955,-4.465 9.955,-9.964 z"
         id="path2648"
         style="fill:#cc0000" />
      <path
         d="m 33.88,22.719 c 0,-4.619 -3.756,-8.366 -8.372,-8.366 -4.619,0 -8.369,3.747 -8.369,8.366 0,4.623 3.75,8.367 8.369,8.367 4.616,0 8.372,-3.744 8.372,-8.367 z"
         id="path2650"
         style="fill:#cc0000" />
      <path
         d="m 57.78,10.364 c 0,-4.18 -3.385,-7.571 -7.566,-7.571 -4.18,0 -7.571,3.391 -7.571,7.571 0,4.187 3.392,7.578 7.571,7.578 4.182,0 7.566,-3.391 7.566,-7.578 z"
         id="path2652"
         style="fill:#cc0000" />
      <path
         d="M 82.891,6.377 C 82.891,2.855 80.042,0 76.517,0 73.001,0 70.14,2.855 70.14,6.377 c 0,3.526 2.861,6.38 6.377,6.38 3.525,0 6.374,-2.854 6.374,-6.38 z"
         id="path2654"
         style="fill:#cc0000" />
    </g>
    <g
       id="g2656">
      <g
         id="g2658">
        <path
           d="m 161.415,62.895 c -5.338,-1.352 -11.706,-1.777 -14.243,-6.153 0.121,0.882 0.204,1.78 0.204,2.706 0,1.985 -0.299,3.867 -0.84,5.619 l 9.258,0 c 0,1.654 0.71,2.866 1.788,3.695 1.022,0.77 2.494,1.142 4.022,1.142 2.097,0 5.102,-0.884 5.102,-3.504 0,-2.545 -3.385,-3.064 -5.291,-3.505 z"
           id="path2660"
           style="fill:none" />
        <path
           d="m 129.896,50.193 c -5.045,0 -6.578,5.051 -6.578,9.255 0,4.217 1.533,9.187 6.578,9.187 5.039,0 6.633,-4.97 6.633,-9.187 -0.001,-4.204 -1.594,-9.255 -6.633,-9.255 z"
           id="path2662"
           style="fill:none" />
        <path
           d="M 192.015,62.895 C 185.337,61.204 176.724,60.97 176.338,52.616 l -9.62,0 c 0,-1.396 -0.512,-2.29 -1.396,-2.866 -0.903,-0.569 -2.107,-0.827 -3.447,-0.827 -1.781,0 -4.992,0.188 -4.992,2.487 0,3.132 7.273,3.705 12.247,4.787 6.649,1.335 8.399,6.118 8.423,8.869 l 8.842,0 c 0,1.654 0.71,2.866 1.788,3.695 1.023,0.77 2.494,1.142 4.021,1.142 2.097,0 5.103,-0.884 5.103,-3.504 -10e-4,-2.544 -3.385,-3.063 -5.292,-3.504 z"
           id="path2664"
           style="fill:none" />
        <path
           d="m 199.729,56.198 c -4.975,-1.082 -12.581,-1.654 -12.581,-4.787 0,-2.3 2.879,-2.487 4.66,-2.487 1.339,0 2.544,0.258 3.447,0.827 0.884,0.576 1.396,1.47 1.396,2.866 l 10.019,0 c -0.385,-8.606 -7.98,-10.714 -15.239,-10.714 -6.048,0 -13.905,1.882 -14.992,8.54 -1.485,-6.781 -8.344,-8.54 -14.943,-8.54 -6.51,0 -15.461,2.172 -15.461,10.146 0,0.141 0.021,0.261 0.024,0.398 -2.525,-6.296 -8.49,-10.544 -16.163,-10.544 -8.299,0 -14.504,4.847 -16.602,11.996 1.604,2.158 2.448,4.973 2.448,7.912 0,2.413 -0.384,4.549 -1.111,6.419 2.853,5.273 8.343,8.696 15.265,8.696 7.354,0 13.123,-3.872 15.815,-9.719 1.414,7.509 8.762,9.719 15.957,9.719 6.187,0 13.02,-2.027 15.179,-7.772 2.235,5.949 8.89,7.772 15.421,7.772 7.462,0 15.886,-2.931 15.886,-11.801 -0.001,-2.742 -1.731,-7.583 -8.425,-8.927 z m -69.833,12.437 c -5.045,0 -6.578,-4.97 -6.578,-9.187 0,-4.205 1.533,-9.255 6.578,-9.255 5.039,0 6.633,5.051 6.633,9.255 -0.001,4.218 -1.594,9.187 -6.633,9.187 z m 31.708,1.269 c -1.528,0 -3,-0.372 -4.022,-1.142 -1.078,-0.829 -1.788,-2.041 -1.788,-3.695 l -9.258,0 c 0.541,-1.752 0.84,-3.634 0.84,-5.619 0,-0.926 -0.083,-1.824 -0.204,-2.706 2.537,4.375 8.905,4.801 14.243,6.153 1.906,0.441 5.291,0.96 5.291,3.505 0,2.62 -3.005,3.504 -5.102,3.504 z m 30.599,0 c -1.527,0 -2.998,-0.372 -4.021,-1.142 -1.078,-0.829 -1.788,-2.041 -1.788,-3.695 l -8.842,0 c -0.023,-2.751 -1.773,-7.534 -8.423,-8.869 -4.974,-1.082 -12.247,-1.654 -12.247,-4.787 0,-2.3 3.211,-2.487 4.992,-2.487 1.34,0 2.544,0.258 3.447,0.827 0.885,0.576 1.396,1.47 1.396,2.866 l 9.62,0 c 0.386,8.354 8.999,8.587 15.677,10.279 1.907,0.441 5.291,0.96 5.291,3.505 0.001,2.619 -3.005,3.503 -5.102,3.503 z"
           id="path2666"
           style="fill:#60605b" />
      </g>
      <path
         d="m 209.127,36.16 0.965,0 1.452,2.386 0.941,0 -1.571,-2.43 c 0.807,-0.102 1.42,-0.53 1.42,-1.509 0,-1.099 -0.638,-1.573 -1.938,-1.573 l -2.102,0 0,5.512 0.833,0 0,-2.386 z m 0,-0.714 0,-1.711 1.143,0 c 0.567,0 1.2,0.132 1.2,0.815 0,0.847 -0.633,0.896 -1.339,0.896 l -1.004,0 z"
         id="path2668"
         style="fill:#60605b" />
      <path
         d="m 215.518,35.8 c 0,2.98 -2.42,5.392 -5.399,5.392 -2.986,0 -5.406,-2.412 -5.406,-5.392 0,-2.987 2.42,-5.405 5.406,-5.405 2.979,0.001 5.399,2.418 5.399,5.405 z m -5.4,-4.444 c -2.464,0 -4.452,1.982 -4.452,4.444 0,2.451 1.988,4.432 4.452,4.432 2.45,0 4.438,-1.981 4.438,-4.432 10e-4,-2.462 -1.988,-4.444 -4.438,-4.444 z"
         id="path2670"
         style="fill:#60605b" />
    </g>
    <g
       id="g2672">
      <path
         d="m 108.227,116.338 c -1.092,0 -2.122,-0.576 -2.719,-1.235 l 0,1.009 -2.102,0 0,-13.925 2.102,-1.092 0,5.232 c 0.782,-0.722 1.688,-1.257 2.822,-1.257 2.327,0 4.16,1.689 4.16,5.809 0,3.709 -2.018,5.459 -4.263,5.459 z m -0.289,-9.31 c -1.01,0 -1.896,0.68 -2.451,1.381 l 0,4.552 c 0.474,0.639 1.462,1.421 2.533,1.421 1.524,0 2.349,-1.152 2.349,-3.439 0,-2.72 -0.865,-3.915 -2.431,-3.915 z"
         id="path2674"
         style="fill:#60605b" />
      <path
         d="m 118.915,119.923 -2.245,0 1.565,-4.017 -3.976,-10.609 2.328,0 1.771,5.295 c 0.329,0.947 0.824,2.554 0.947,3.15 0.186,-0.638 0.639,-2.183 0.968,-3.109 l 1.834,-5.336 2.245,0 -5.437,14.626 z"
         id="path2676"
         style="fill:#60605b" />
    </g>
  </g>
</svg>
